<svg width="892" height="501" viewBox="0 0 892 501" fill="none" xmlns="http://www.w3.org/2000/svg">
<g clip-path="url(#clip0_3284_296)">
<path d="M831.58 471.597C831.338 480.616 829.827 489.557 827.092 498.154C827.031 498.354 826.964 498.55 826.898 498.75H810.15C810.167 498.571 810.186 498.371 810.203 498.154C811.32 485.316 804.94 408.112 797.242 394.75C797.917 395.834 832.879 430.805 831.58 471.597Z" fill="#F1F1F1"/>
<path d="M830.32 498.154C830.18 498.353 830.035 498.553 829.885 498.749H817.32C817.416 498.579 817.526 498.38 817.654 498.154C819.729 494.408 825.873 483.207 831.576 471.596C837.702 459.119 843.327 446.168 842.853 441.48C843 442.537 847.241 474.765 830.32 498.154Z" fill="#F1F1F1"/>
<path d="M46.3465 478.583C46.526 485.282 47.6482 491.922 49.68 498.307C49.725 498.455 49.775 498.601 49.8237 498.75H62.2625C62.2495 498.617 62.236 498.468 62.2229 498.307C61.3936 488.773 66.1316 431.434 71.849 421.51C71.348 422.315 45.3821 448.287 46.3465 478.583Z" fill="#F1F1F1"/>
<path d="M47.2834 498.307C47.3875 498.456 47.4956 498.604 47.6064 498.75H56.9383C56.8676 498.624 56.7856 498.475 56.6906 498.307C55.1491 495.525 50.5863 487.207 46.351 478.583C41.8012 469.316 37.6236 459.698 37.9754 456.217C37.8663 457.001 34.7167 480.937 47.2834 498.307Z" fill="#F1F1F1"/>
<path d="M654.047 351.25C560.1 311.436 475.105 312.949 395.047 337.25C271.694 315.707 187.228 319.04 133.047 351.25V251.25H654.047V351.25Z" fill="#CBCBCB"/>
<path d="M654.047 323.75C567.495 284.533 481.047 282.001 393.297 323.75C303.419 297.872 216.533 298.142 132.547 323.75V19.75C221.841 -6.90096 308.701 -6.26052 393.297 19.75C482.658 -6.17068 569.653 -6.99276 654.047 19.75V323.75Z" fill="#E5E5E5"/>
<path d="M156.005 57.4754L153.094 50.0237C154.235 49.5779 181.501 39.0369 221.517 33.6599C258.513 28.6877 313.633 27.5007 366.13 50.0745L362.97 57.4241C312.228 35.6057 258.739 36.7546 222.8 41.5593C183.684 46.7903 156.277 57.3689 156.005 57.4754Z" fill="white"/>
<path d="M156.005 85.477L153.094 78.0253C154.235 77.5795 181.501 67.0385 221.517 61.6615C258.513 56.6899 313.633 55.5028 366.13 78.0761L362.97 85.4257C312.228 63.6073 258.739 64.7553 222.8 69.561C183.684 74.7919 156.277 85.3705 156.005 85.477Z" fill="white"/>
<path d="M156.005 113.475L153.094 106.024C154.235 105.578 181.501 95.0369 221.517 89.6599C258.513 84.6877 313.633 83.5007 366.13 106.074L362.97 113.424C312.228 91.6057 258.739 92.7537 222.8 97.5593C183.684 102.79 156.277 113.369 156.005 113.475Z" fill="white"/>
<path d="M156.005 141.477L153.094 134.025C154.235 133.58 181.501 123.038 221.517 117.662C258.513 112.69 313.633 111.502 366.13 134.076L362.97 141.426C312.228 119.607 258.739 120.756 222.8 125.561C183.684 130.792 156.277 141.371 156.005 141.477Z" fill="white"/>
<path d="M156.005 169.475L153.094 162.024C154.235 161.578 181.501 151.037 221.517 145.66C258.513 140.688 313.633 139.501 366.13 162.074L362.97 169.424C312.228 147.605 258.739 148.754 222.8 153.559C183.684 158.79 156.277 169.369 156.005 169.475Z" fill="white"/>
<path d="M156.005 197.477L153.094 190.025C154.235 189.579 181.501 179.038 221.517 173.661C258.513 168.69 313.633 167.502 366.13 190.076L362.97 197.426C312.228 175.607 258.739 176.756 222.8 181.561C183.684 186.792 156.277 197.37 156.005 197.477Z" fill="white"/>
<path d="M417.005 256.477L414.094 249.025C415.235 248.579 442.501 238.038 482.517 232.661C519.513 227.69 574.633 226.502 627.13 249.076L623.97 256.426C573.228 234.607 519.739 235.756 483.8 240.561C444.684 245.792 417.277 256.37 417.005 256.477Z" fill="#D9E6BA"/>
<path d="M414.547 202.738V49.8086L417.354 48.9316C488.498 26.7085 559.296 26.7129 627.782 48.9448L630.547 49.8423V202.535L625.135 200.492C553.865 173.593 484.874 173.577 420.079 200.444L414.547 202.738ZM520.11 172.288C553.595 172.288 587.741 178.53 622.547 191.013V55.6694C557.433 35.1348 490.17 35.146 422.547 55.7022V190.828C453.618 178.586 486.714 172.297 520.11 172.288Z" fill="white"/>
<path d="M622.711 252.513L623.759 227.062L659.705 155.592C660.718 153.56 662.371 151.917 664.409 150.916C665.657 150.293 667.016 149.926 668.408 149.835C669.799 149.744 671.195 149.931 672.513 150.386C674.04 150.913 675.425 151.785 676.559 152.935C677.693 154.084 678.547 155.48 679.053 157.014C679.27 157.676 679.422 158.358 679.508 159.049C679.764 161.102 679.401 163.183 678.466 165.028L642.471 236.594L622.711 252.513Z" fill="#D9E6BA"/>
<path d="M668.885 150.314L629.866 227.894L626.891 226.398L664.63 151.364C665.952 150.702 667.406 150.344 668.885 150.314Z" fill="#3F3D56"/>
<path d="M679.015 159.113L641.483 233.736L638.508 232.239L677.447 154.82C677.926 155.551 678.307 156.341 678.581 157.171C678.788 157.803 678.933 158.453 679.015 159.113Z" fill="#3F3D56"/>
<path d="M675.278 152.454L635.827 230.892L632.852 229.395L672.352 150.859C672.773 151.003 673.183 151.176 673.581 151.377C674.18 151.679 674.749 152.04 675.278 152.454Z" fill="#3F3D56"/>
<path d="M627.228 248.238L623.258 251.435L623.591 243.006C624.954 243.479 626.429 245.531 627.228 248.238Z" fill="#3F3D56"/>
<path d="M235.674 340.104L230.922 325.688L235.985 278.287C236.124 276.941 236.701 275.678 237.628 274.692C238.193 274.083 238.875 273.593 239.632 273.251C240.389 272.908 241.207 272.72 242.037 272.698C242.999 272.671 243.954 272.867 244.828 273.271C245.702 273.674 246.471 274.274 247.075 275.023C247.334 275.347 247.562 275.695 247.755 276.063C248.328 277.154 248.562 278.391 248.428 279.616L243.358 327.081L235.674 340.104Z" fill="#D9E6BA"/>
<path d="M240 273.418L234.504 324.872L232.531 324.661L237.847 274.896C238.446 274.249 239.181 273.744 240 273.418Z" fill="#3F3D56"/>
<path d="M247.494 276.202L242.207 325.695L240.234 325.484L245.719 274.137C246.139 274.444 246.518 274.804 246.845 275.21C247.092 275.519 247.31 275.851 247.494 276.202Z" fill="#3F3D56"/>
<path d="M244.014 273.273L238.457 325.295L236.484 325.085L242.048 272.997C242.313 272.989 242.578 272.999 242.842 273.028C243.24 273.07 243.632 273.153 244.014 273.273Z" fill="#3F3D56"/>
<path d="M237.298 336.773L235.754 339.389L234.172 334.618C235.031 334.596 236.285 335.431 237.298 336.773Z" fill="#3F3D56"/>
<path d="M750.437 323.199C749.895 324.146 749.173 324.976 748.31 325.644C747.448 326.312 746.462 326.803 745.41 327.089C743.285 327.669 741.016 327.38 739.104 326.286C737.192 325.193 735.792 323.385 735.213 321.259C734.634 319.134 734.923 316.866 736.017 314.954C736.035 314.921 736.054 314.889 736.073 314.857C736.305 314.468 736.567 314.097 736.855 313.747L729.869 263.952L729.66 262.46L728.24 252.299L728.031 250.834L728.805 250.87L742.341 251.489L745.97 251.653L746.425 260.922L748.999 313.038C750.344 314.324 751.217 316.026 751.478 317.869C751.739 319.712 751.372 321.589 750.437 323.199Z" fill="#FFB8B8"/>
<path d="M729.698 262.91L746.886 261.333C747.778 261.249 748.6 260.816 749.173 260.128C749.746 259.44 750.024 258.553 749.946 257.661L746.762 221.918C746.455 218.476 744.793 215.296 742.141 213.079C739.49 210.862 736.066 209.789 732.623 210.097C729.181 210.404 726.001 212.066 723.784 214.718C721.567 217.37 720.494 220.793 720.802 224.236C720.824 224.482 720.853 224.727 720.889 224.972L726.043 260.031C726.161 260.834 726.564 261.568 727.178 262.099C727.792 262.63 728.577 262.923 729.389 262.925C729.492 262.926 729.595 262.921 729.698 262.91Z" fill="#CBCBCB"/>
<path d="M742.728 234.034C744.466 229.109 744.547 223.752 742.957 218.777C741.367 213.803 738.195 209.485 733.923 206.481C727.441 202.047 718.572 200.455 709.02 211.826C697.462 225.707 689.218 242.04 684.914 259.584L724.03 265.951C724.03 265.951 737.332 249.691 742.728 234.034Z" fill="#CBCBCB"/>
<path d="M679.466 490.204H668.313L663.008 447.188H679.467L679.466 490.204Z" fill="#FFB8B8"/>
<path d="M646.805 500.56H681.855V487.018H660.347C656.755 487.018 653.311 488.444 650.771 490.984C648.231 493.524 646.805 496.968 646.805 500.56Z" fill="#2F2E41"/>
<path d="M771.151 480.478L760.563 483.979L742.023 444.801L757.652 439.635L771.151 480.478Z" fill="#FFB8B8"/>
<path d="M743.395 500.559L776.675 489.559L772.425 476.701L752.003 483.451C748.593 484.578 745.77 487.014 744.156 490.222C742.542 493.431 742.268 497.149 743.395 500.559Z" fill="#2F2E41"/>
<path d="M718.171 195.203C730.51 195.203 740.513 185.2 740.513 172.86C740.513 160.521 730.51 150.518 718.171 150.518C705.831 150.518 695.828 160.521 695.828 172.86C695.828 185.2 705.831 195.203 718.171 195.203Z" fill="#FFB8B8"/>
<path d="M698.607 478.23L708.963 409.873C709.074 409.143 709.434 408.475 709.983 407.981C710.532 407.488 711.235 407.201 711.972 407.169C712.709 407.137 713.435 407.361 714.025 407.805C714.614 408.248 715.032 408.883 715.206 409.6L730.978 474.743C731.226 475.741 731.839 476.611 732.695 477.18C733.551 477.75 734.589 477.979 735.606 477.823L779.111 470.831C779.688 470.738 780.239 470.523 780.726 470.2C781.212 469.877 781.624 469.454 781.934 468.958C782.244 468.463 782.444 467.907 782.521 467.328C782.597 466.748 782.549 466.159 782.38 465.6L725.651 278.571C725.49 278.039 725.471 277.475 725.596 276.933L727.484 268.746C727.692 267.859 727.596 266.927 727.212 266.101C726.829 265.274 726.179 264.6 725.368 264.185C717.643 260.244 698.077 252.049 683.312 261.025C682.833 261.317 682.418 261.704 682.093 262.162C681.768 262.62 681.539 263.139 681.421 263.688L637.105 471.976C636.985 472.543 636.986 473.128 637.108 473.694C637.231 474.26 637.472 474.794 637.816 475.259C638.16 475.725 638.598 476.113 639.103 476.397C639.608 476.681 640.167 476.854 640.744 476.906L694.194 481.692C694.315 481.703 694.436 481.709 694.558 481.709C695.536 481.707 696.482 481.355 697.224 480.717C697.966 480.079 698.456 479.197 698.604 478.229L698.607 478.23Z" fill="#2F2E41"/>
<path d="M732.991 157.075C731.307 156.062 729.813 154.763 728.575 153.236C727.964 152.465 727.562 151.549 727.407 150.577C727.253 149.605 727.351 148.61 727.693 147.687C728.821 145.196 732.175 144.412 734.775 145.257C737.375 146.102 739.383 148.143 741.282 150.108C742.955 151.837 744.676 153.649 745.467 155.922C746.257 158.195 745.852 161.078 743.878 162.458C741.941 163.812 739.155 163.258 737.292 161.804C735.533 160.215 734.13 158.271 733.176 156.101L732.991 157.075Z" fill="#2F2E41"/>
<path d="M740.555 150.709C740.678 144.414 747.854 139.899 754.052 141.016C760.249 142.132 765.012 147.415 767.397 153.243C772.434 165.555 768.653 179.604 763.799 191.995C758.945 204.386 752.937 216.955 753.646 230.24C754.125 237.421 756.535 244.338 760.62 250.263C764.706 256.187 770.315 260.898 776.856 263.898C769.863 267.069 761.503 263.794 755.625 258.851C742.573 247.876 737.535 228.335 743.653 212.418C746.67 204.566 751.988 197.849 756.14 190.535C760.292 183.22 763.338 174.599 761.194 166.466C759.05 158.332 749.928 151.748 742.129 154.894L740.555 150.709Z" fill="#2F2E41"/>
<path d="M716.833 182.775C718.78 179.484 720.744 175.163 717.186 172.286C716.412 171.689 715.526 171.252 714.581 171.003C713.636 170.753 712.65 170.694 711.682 170.83C707.669 171.314 703.298 171.514 699.412 170.055C697.955 169.554 696.614 168.765 695.468 167.735C694.321 166.705 693.394 165.455 692.74 164.06C690.739 159.308 693.246 153.533 697.438 150.529C700.004 148.758 703.034 147.784 706.151 147.729C709.267 147.674 712.331 148.54 714.957 150.219C720.388 147.82 726.977 148.887 731.911 152.189C736.845 155.491 740.221 160.779 742.054 166.426C743.744 171.286 744.035 176.523 742.894 181.54C741.976 185.03 740.231 188.248 737.805 190.921C735.38 193.594 732.346 195.643 728.961 196.894C727.643 197.415 726.211 197.579 724.809 197.371C723.407 197.164 722.084 196.592 720.973 195.712C719.167 194.092 717.779 192.059 716.93 189.786C716.189 187.296 715.793 184.534 716.833 182.775Z" fill="#2F2E41"/>
<path d="M650.552 202.711C650.664 203.202 650.736 203.701 650.77 204.203L689.847 226.746L699.345 221.278L709.47 234.534L693.596 245.849C692.314 246.763 690.769 247.237 689.194 247.198C687.62 247.16 686.1 246.612 684.863 245.636L644.565 213.846C642.746 214.52 640.765 214.624 638.885 214.144C637.005 213.665 635.316 212.624 634.043 211.161C632.769 209.698 631.971 207.882 631.755 205.954C631.539 204.026 631.915 202.078 632.833 200.369C633.751 198.66 635.167 197.272 636.894 196.387C638.621 195.503 640.576 195.166 642.499 195.42C644.422 195.675 646.222 196.508 647.66 197.811C649.097 199.113 650.104 200.822 650.547 202.711L650.552 202.711Z" fill="#FFB8B8"/>
<path d="M691.152 227.815L703.782 244.184C704.142 244.649 704.597 245.031 705.117 245.305C705.638 245.578 706.211 245.736 706.798 245.769C707.384 245.801 707.971 245.706 708.519 245.491C709.066 245.276 709.56 244.946 709.968 244.523L724.265 229.676C725.468 228.787 726.483 227.668 727.253 226.386C728.023 225.103 728.532 223.681 728.751 222.201C728.97 220.721 728.895 219.213 728.53 217.762C728.165 216.311 727.518 214.946 726.625 213.746C725.731 212.546 724.61 211.534 723.325 210.768C722.04 210.002 720.617 209.497 719.136 209.282C717.656 209.067 716.148 209.146 714.698 209.515C713.248 209.884 711.885 210.536 710.688 211.432C710.564 211.524 710.443 211.619 710.323 211.716L692.391 221.742C691.878 222.029 691.433 222.424 691.085 222.899C690.738 223.374 690.498 223.918 690.38 224.494C690.262 225.071 690.27 225.666 690.403 226.239C690.535 226.812 690.79 227.349 691.15 227.815H691.152Z" fill="#CBCBCB"/>
<path d="M208.549 488.809L220.672 488.808L226.44 442.047L208.547 442.048L208.549 488.809Z" fill="#A0616A"/>
<path d="M205.461 484.851L229.336 484.85H229.337C233.372 484.85 237.242 486.453 240.096 489.306C242.949 492.16 244.552 496.029 244.552 500.065V500.559L205.462 500.56L205.461 484.851Z" fill="#2F2E41"/>
<path d="M114.156 483.56L126.143 485.372L138.836 439.998L123.121 437.324L114.156 483.56Z" fill="#A0616A"/>
<path d="M111.691 479.186L135.299 482.754C139.288 483.357 142.876 485.521 145.271 488.769C147.666 492.016 148.672 496.082 148.069 500.072L147.995 500.561L109.344 494.719L111.691 479.186Z" fill="#2F2E41"/>
<path d="M151.533 257.07L164.994 260.597L164.099 282.421L163.988 322.155C165.314 323.072 166.33 324.37 166.902 325.878C167.475 327.385 167.576 329.031 167.193 330.597C166.809 332.164 165.959 333.576 164.756 334.649C163.552 335.722 162.051 336.404 160.451 336.605C158.851 336.806 157.228 336.517 155.796 335.775C154.364 335.033 153.191 333.875 152.432 332.452C151.673 331.029 151.364 329.41 151.546 327.808C151.727 326.205 152.391 324.696 153.449 323.479L149.312 283.599L151.533 257.07Z" fill="#A0616A"/>
<path d="M149.189 232.074C149.263 229.965 149.943 227.922 151.148 226.189C152.353 224.456 154.031 223.107 155.982 222.302C157.808 221.485 159.833 221.219 161.809 221.537C163.784 221.854 165.624 222.742 167.102 224.091C168.164 225.04 169.007 226.209 169.571 227.518C170.134 228.826 170.406 230.241 170.367 231.665C170.402 244.45 167.516 263.085 167.487 263.271L167.441 263.568L147.766 270.194L149.189 232.074Z" fill="#CBCBCB"/>
<path d="M184.376 268.364L214.469 260.574L228.38 307.424L228.875 481.959L205.862 481.815L196.242 340.551L134.933 471.081L110.211 468.115L164.104 328.19C164.104 328.19 161.137 303.469 170.532 291.108L168.554 278.253L184.376 268.364Z" fill="#2F2E41"/>
<path d="M164.083 280.02C163.662 279.508 163.356 278.912 163.187 278.272C163.017 277.632 162.987 276.963 163.099 276.31L149.372 235.13C148.731 233.205 148.663 231.135 149.176 229.172C149.689 227.209 150.761 225.437 152.262 224.072L158.221 218.655L162.259 202.502L185.469 208.175L183.557 215.825L194.061 213.915L216.186 263.193L169.939 281.678L167.662 281.714C166.977 281.715 166.3 281.563 165.681 281.27C165.062 280.977 164.516 280.55 164.083 280.02Z" fill="#CBCBCB"/>
<path d="M196.297 245.252L209.558 241.037L220.467 259.96L241.613 293.601C243.224 293.667 244.777 294.221 246.066 295.189C247.356 296.157 248.321 297.494 248.834 299.022C249.347 300.551 249.384 302.199 248.94 303.75C248.496 305.3 247.592 306.678 246.347 307.704C245.103 308.729 243.576 309.352 241.97 309.49C240.363 309.629 238.752 309.277 237.351 308.48C235.949 307.683 234.822 306.48 234.119 305.029C233.416 303.577 233.17 301.947 233.414 300.353L208.601 268.86L196.297 245.252Z" fill="#A0616A"/>
<path d="M180.954 225.375C179.889 223.553 179.372 221.463 179.464 219.355C179.555 217.246 180.252 215.209 181.471 213.487C182.578 211.82 184.148 210.513 185.987 209.726C187.826 208.939 189.855 208.705 191.825 209.054C193.231 209.288 194.568 209.827 195.744 210.631C196.919 211.435 197.906 212.486 198.634 213.711C205.497 224.496 213.019 241.789 213.094 241.962L213.213 242.237L200.127 258.353L180.954 225.375Z" fill="#CBCBCB"/>
<path d="M179.426 199.498C189.61 199.498 197.867 191.241 197.867 181.056C197.867 170.872 189.61 162.615 179.426 162.615C169.241 162.615 160.984 170.872 160.984 181.056C160.984 191.241 169.241 199.498 179.426 199.498Z" fill="#A0616A"/>
<path d="M146.842 173.277C156.652 173.277 164.605 165.324 164.605 155.514C164.605 145.703 156.652 137.75 146.842 137.75C137.031 137.75 129.078 145.703 129.078 155.514C129.078 165.324 137.031 173.277 146.842 173.277Z" fill="#2F2E41"/>
<path d="M131.521 170.223C133.82 171.885 136.484 172.972 139.289 173.393C142.095 173.815 144.96 173.558 147.646 172.645C150.332 171.731 152.76 170.188 154.727 168.144C156.694 166.1 158.143 163.615 158.953 160.896C158.646 163.333 157.838 165.679 156.579 167.787C155.32 169.896 153.638 171.72 151.638 173.146C149.638 174.571 147.365 175.566 144.961 176.069C142.557 176.571 140.076 176.569 137.672 176.064C135.269 175.559 132.997 174.561 130.999 173.133C129.001 171.706 127.321 169.879 126.064 167.769C124.808 165.659 124.002 163.312 123.699 160.875C123.395 158.438 123.6 155.965 124.301 153.611C123.903 156.773 124.363 159.984 125.634 162.907C126.904 165.83 128.938 168.357 131.521 170.223Z" fill="#2F2E41"/>
<path d="M201.622 170.242C198.52 164.69 197.334 162.371 193.335 158.995C189.8 156.009 185.45 155.132 181.942 157.961C177.793 156.168 173.175 155.762 168.776 156.802C164.376 157.842 160.43 160.274 157.522 163.736C154.615 167.198 152.902 171.505 152.638 176.018C152.373 180.531 153.572 185.009 156.055 188.786C158.538 192.564 162.173 195.44 166.421 196.987C170.669 198.534 175.302 198.669 179.633 197.373C183.964 196.077 187.761 193.418 190.461 189.792C193.161 186.166 194.619 181.766 194.618 177.245C194.615 176.451 194.567 175.658 194.475 174.87C197.524 174.441 198.572 170.67 201.622 170.242Z" fill="#2F2E41"/>
<path d="M382 500.75H1C0.734784 500.75 0.480429 500.645 0.292892 500.457C0.105356 500.27 0 500.015 0 499.75C0 499.485 0.105356 499.23 0.292892 499.043C0.480429 498.855 0.734784 498.75 1 498.75H382C382.265 498.75 382.52 498.855 382.707 499.043C382.895 499.23 383 499.485 383 499.75C383 500.015 382.895 500.27 382.707 500.457C382.52 500.645 382.265 500.75 382 500.75Z" fill="#CBCBCB"/>
<path d="M891 500.75H510C509.735 500.75 509.48 500.645 509.293 500.457C509.105 500.27 509 500.015 509 499.75C509 499.485 509.105 499.23 509.293 499.043C509.48 498.855 509.735 498.75 510 498.75H891C891.265 498.75 891.52 498.855 891.707 499.043C891.895 499.23 892 499.485 892 499.75C892 500.015 891.895 500.27 891.707 500.457C891.52 500.645 891.265 500.75 891 500.75Z" fill="#CBCBCB"/>
<path d="M394.297 19.75H392.297V322.788H394.297V19.75Z" fill="#CBCBCB"/>
</g>
<defs>
<clipPath id="clip0_3284_296">
<rect width="892" height="500.75" fill="white"/>
</clipPath>
</defs>
</svg>
